<?xml version="1.0" standalone="no"?>
<!DOCTYPE svg PUBLIC "-//W3C//DTD SVG 20010904//EN"
 "http://www.w3.org/TR/2001/REC-SVG-20010904/DTD/svg10.dtd">
<svg version="1.0" xmlns="http://www.w3.org/2000/svg"
 width="16.000000pt" height="16.000000pt" viewBox="0 0 16.000000 16.000000"
 preserveAspectRatio="xMidYMid meet">
<metadata>
Created by potrace 1.11, written by Peter Selinger 2001-2013
</metadata>
<g transform="translate(0.000000,16.000000) scale(0.006154,-0.006154)"
fill="#000000" stroke="none">
<path d="M300 1280 l0 -580 70 0 70 0 2 460 3 459 145 -420 145 -420 80 3 79
3 156 422 155 422 3 -465 2 -464 75 0 75 0 0 580 0 580 -99 0 -99 0 -60 -162
c-33 -90 -106 -290 -163 -445 -57 -156 -106 -283 -109 -283 -3 0 -42 107 -87
238 -45 130 -114 330 -153 445 l-72 207 -109 0 -109 0 0 -580z"/>
<path d="M1650 1281 l0 -581 80 0 80 0 0 235 0 235 68 0 c140 1 294 53 367
125 58 59 88 134 93 236 6 117 -14 186 -72 243 -70 71 -105 78 -378 84 l-238
4 0 -581z m380 448 c59 -12 107 -49 126 -96 22 -52 17 -140 -10 -198 -46 -97
-111 -135 -248 -143 l-88 -5 0 227 0 226 85 0 c46 0 107 -5 135 -11z"/>
</g>
</svg>
